<?xml version="1.0" encoding="utf-8"?>
<svg xmlns="http://www.w3.org/2000/svg" width="60" height="62" viewBox="0 0 60 62" fill="none">
<path d="M52.8461 33.5699C51.4949 32.6043 49.6293 32.9324 48.6777 34.3047L43.2227 42.1715C43.1523 42.2734 43.0691 42.3648 42.9801 42.4469L42.8066 42.5898L43.123 42.9062H44.5891L53.8445 36.9332L54.1117 36.3695C54.1375 35.3511 53.6969 34.1781 52.8461 33.5699Z" fill="#FCC292"/>
<path d="M52.0984 34.3048C52.3047 34.0071 52.5555 33.7575 52.8332 33.5606C51.4832 32.6056 49.6258 32.9372 48.6777 34.3048L43.2227 42.1716C43.1523 42.2735 43.0691 42.3649 42.9801 42.447L42.8066 42.5899L43.123 42.9064H44.5891L47.3828 41.1028L52.0984 34.3048Z" fill="#EFAD7D"/>
<path d="M56.7793 37.7114C55.8453 36.2946 53.9246 35.943 52.5477 36.9133L44.8156 42.3614C44.4711 42.604 44.0504 42.7153 43.6309 42.6731L37.973 42.1094C37.9332 42.1059 37.9309 42.0473 37.9707 42.0403C39.3828 41.8153 40.5359 40.6868 40.7176 39.2008C40.932 37.4454 39.7062 35.8387 37.9496 35.5704L24.6559 33.5372C23.1523 33.3075 21.6172 33.6672 20.3762 34.5426L13.2723 39.5477L12.8809 40.9528L19.9227 51.0368H21.4098C24.2785 49.395 27.5445 48.5383 30.875 48.5794C32.2215 48.5958 41.4887 48.7083 42.8539 48.7247C44.9105 48.7762 46.9285 48.1645 48.6078 46.9821L55.9473 41.8106C57.2715 40.879 57.6699 39.0602 56.7793 37.7114Z" fill="#FFD7B6"/>
<path d="M19.8109 41.6337C19.5098 41.2024 19.4172 40.6599 19.5578 40.1536C19.6668 39.7622 19.9082 39.42 20.2398 39.1868L26.8293 34.5439C27.1223 34.3376 27.4316 34.1606 27.7527 34.013L24.652 33.5384C23.1484 33.3087 21.6133 33.6685 20.3723 34.5439L13.2684 39.5489L12.877 40.954L19.9211 51.0368H21.4082C22.6188 50.3442 23.8996 49.7935 25.2262 49.3892L19.8109 41.6337Z" fill="#FCC292"/>
<path d="M32.325 41.6325L37.9441 42.0813C37.9406 42.0637 37.9476 42.0438 37.9711 42.0403C38.9484 41.8844 39.8015 41.295 40.2949 40.4547C40.2796 40.4524 40.2656 40.4501 40.2503 40.4489L32.4703 39.8278C31.9711 39.7868 31.5351 40.1594 31.4953 40.6587C31.4543 41.1555 31.8269 41.5926 32.325 41.6325Z" fill="#FCC292"/>
<path d="M22.2418 52.2132L12.4051 38.3253C11.9762 37.7194 11.1313 37.5812 10.5184 38.0159L7.64844 40.048V41.2796L18.0711 55.6866L19.0391 56.1296L21.909 54.0976C22.5207 53.6616 22.6707 52.819 22.2418 52.2132Z" fill="#F0F0F3"/>
<path d="M13.8441 40.3562L12.4051 38.3253C11.9762 37.7194 11.1313 37.5812 10.5184 38.0159L7.64844 40.0479V41.2796L9.30547 43.5706L13.8441 40.3562Z" fill="#E2E2E6"/>
<path d="M7.649 40.0481L0.645876 45.0086C0.0200946 45.4516 -0.13928 46.3024 0.289626 46.9071L10.1263 60.795C10.5553 61.4008 11.4107 61.5321 12.0353 61.0891L19.0385 56.1286L7.649 40.0481Z" fill="#0299CE"/>
<path d="M5.81385 47.6911C5.38494 47.0852 5.62166 46.1805 6.34119 45.6708L9.86384 43.1758L7.649 40.0481L0.645876 45.0086C0.0200946 45.4516 -0.13928 46.3024 0.289626 46.9071L10.1263 60.795C10.5553 61.4008 11.4107 61.5321 12.0353 61.0891L14.2115 59.5481L5.81385 47.6911Z" fill="#007FB6"/>
<path d="M50.7934 8.42505H24.0641C24.0641 8.42505 22.3543 14.4215 22.291 23.0864C22.2887 23.4098 22.4434 23.7145 22.7071 23.9008C24.0629 24.8606 28.7574 27.6954 37.4293 28.1219C46.1012 27.6954 50.7957 24.8606 52.1516 23.9008C52.4153 23.7133 52.5699 23.4098 52.5676 23.0864C52.5031 14.4215 50.7934 8.42505 50.7934 8.42505Z" fill="#4B4E65"/>
<path d="M51.9773 14.6419L38.0156 19.2591C37.6336 19.3845 37.2234 19.3845 36.8426 19.2591L22.8809 14.6419C23.3965 10.7689 24.0656 8.42627 24.0656 8.42627H50.7937C50.7937 8.4251 51.4617 10.7689 51.9773 14.6419Z" fill="#3B3F58"/>
<path d="M52.5664 23.0875C52.5688 23.411 52.4141 23.7157 52.1516 23.902C51.6031 24.2911 50.5051 24.9872 48.8176 25.7067C49.0356 25.4946 49.1609 25.2004 49.1563 24.8922C49.0906 16.0094 47.5039 9.59575 47.1934 8.42505H50.7934C50.7934 8.42505 52.5031 14.4215 52.5664 23.0875Z" fill="#3B3F58"/>
<path d="M36.8415 0.743359L15.545 7.78516C14.6907 8.06758 14.6907 9.27695 15.545 9.55938L36.8415 16.6023C37.2224 16.7277 37.6337 16.7277 38.0157 16.6023L59.3122 9.55938C60.1665 9.27695 60.1665 8.06758 59.3122 7.78516L38.0146 0.743359C37.6337 0.616797 37.2224 0.616797 36.8415 0.743359Z" fill="#5E6276"/>
<path d="M59.3094 9.5605L38.0141 16.6023C37.632 16.7289 37.2219 16.7289 36.841 16.6023L32.3691 15.1234C32.6996 15.196 33.0465 15.1785 33.3711 15.0718L55.0426 7.90347C55.6543 7.7019 55.8371 7.03276 55.5875 6.55347L59.3105 7.78511C60.1648 8.0687 60.1648 9.27808 59.3094 9.5605Z" fill="#4B4E65"/>
<path d="M27.4996 20.05C26.9992 20.05 26.5938 19.6446 26.5938 19.1442V13.5133C26.5938 13.2098 26.7461 12.9262 26.9992 12.7586L34.8531 7.56136C35.2703 7.28597 35.8316 7.39964 36.1082 7.81683C36.3836 8.23402 36.2699 8.79535 35.8527 9.07191L28.4043 14.0008V19.1453C28.4055 19.6446 28 20.05 27.4996 20.05Z" fill="#433F43"/>
<path d="M27.0219 18.2664C26.3715 19.6679 25.2875 23.1343 25.2559 30.7093C25.2547 30.9167 25.3953 31.0972 25.5969 31.15C25.9754 31.2472 26.6469 31.3796 27.5024 31.3796C28.3578 31.3796 29.0293 31.2472 29.4078 31.15C29.6082 31.0984 29.7488 30.9167 29.7488 30.7093C29.7172 23.1343 28.6332 19.6679 27.9828 18.2664H27.0219Z" fill="#FFDA00"/>
<path d="M29.7473 30.7093C29.7484 30.9156 29.6078 31.0972 29.4074 31.1488C29.057 31.239 28.4559 31.3585 27.6906 31.3761C27.7949 31.2917 27.8594 31.164 27.8582 31.0234C27.8324 24.9085 27.1211 21.4714 26.5059 19.6363C26.6887 19.0457 26.8668 18.598 27.0203 18.2664H27.9801C28.6316 19.6667 29.7168 23.1343 29.7473 30.7093Z" fill="#FFC000"/>
<path d="M27.5004 20.0618C28.5437 20.0618 29.3895 19.2161 29.3895 18.1728C29.3895 17.1295 28.5437 16.2837 27.5004 16.2837C26.4571 16.2837 25.6113 17.1295 25.6113 18.1728C25.6113 19.2161 26.4571 20.0618 27.5004 20.0618Z" fill="#FFDA00"/>
<path d="M39.8105 7.58936C39.8105 8.4917 38.7406 8.85029 37.4199 8.85029C36.0992 8.85029 35.0293 8.49287 35.0293 7.58936C35.0293 6.68584 36.0992 5.95459 37.4199 5.95459C38.7395 5.95576 39.8105 6.68701 39.8105 7.58936Z" fill="#4B4E65"/>
<path d="M39.8109 7.58941C39.8109 8.49175 38.7398 8.85034 37.4203 8.85034C37.2902 8.85034 37.1637 8.84683 37.0395 8.8398C37.5574 8.64292 37.8855 8.30894 37.8855 7.80972C37.8855 7.04917 37.1273 6.41167 36.0996 6.22769C36.4781 6.05659 36.9316 5.95581 37.4203 5.95581C38.741 5.95464 39.8109 6.68706 39.8109 7.58941Z" fill="#3B3F58"/>
</svg>